PathFileType	4	(X/Y/Z)	..\data\SUBJ01\dynamic\walk.trc
DataRate	CameraRate	NumFrames	NumMarkers	Units	OrigDataRate	OrigDataStartFrame	OrigNumFrames
100.000000	100.000000	6	33	mm	100.000000	13	337
Frame#	Time	LFHD			RFHD			LBHD			RBHD			C7			T10			CLAV			STRN			LSHO			LELB			LWRA			LWRB			LFIN			RSHO			RELB			RWRA			RWRB			RFIN			LASI			RASI			SACR			LTHI			LKNE			LTIB			LANK			LHEE			LTOE			RTHI			RKNE			RTIB			RANK			RHEE			RTOE			
		X1	Y1	Z1	X2	Y2	Z2	X3	Y3	Z3	X4	Y4	Z4	X5	Y5	Z5	X6	Y6	Z6	X7	Y7	Z7	X8	Y8	Z8	X9	Y9	Z9	X10	Y10	Z10	X11	Y11	Z11	X12	Y12	Z12	X13	Y13	Z13	X14	Y14	Z14	X15	Y15	Z15	X16	Y16	Z16	X17	Y17	Z17	X18	Y18	Z18	X19	Y19	Z19	X20	Y20	Z20	X21	Y21	Z21	X22	Y22	Z22	X23	Y23	Z23	X24	Y24	Z24	X25	Y25	Z25	X26	Y26	Z26	X27	Y27	Z27	X28	Y28	Z28	X29	Y29	Z29	X30	Y30	Z30	X31	Y31	Z31	X32	Y32	Z32	X33	Y33	Z33	

14	1.08	227.5676727294922	1532.968017578125	-273.8455810546876	212.8626556396485	1505.709106445313	-152.4211578369141	74.76541900634767	1457.470825195313	-292.6172485351563	62.95761871337892	1436.799560546875	-162.1644134521485	25.54504394531251	1348.164306640625	-218.2838134765626	-44.29584121704102	1128.80908203125	-221.0943756103516	171.3317108154297	1246.065185546875	-238.1571502685547	227.9677429199219	1088.586791992188	-232.2638397216797	68.94880676269533	1303.5732421875	-396.3408508300782	12.50423622131348	1008.497436523438	-493.2353515625001	107.8147277832032	784.842956542969	-504.8366699218751	52.77140426635744	775.5496826171877	-539.2805786132814	123.1491241455078	697.5993652343751	-535.1512451171876	110.1021728515625	1281.290649414063	-55.33577346801759	96.46370697021487	991.7896118164065	51.21996688842775	235.1365203857422	789.1586914062502	-3.10157608985901	180.1487426757813	764.2243652343751	47.07761764526368	277.9575195312501	715.7596435546876	20.79768753051758	146.9775085449219	862.3823242187502	-358.2558288574219	136.2431640625	847.6712036132815	-83.88702392578126	-36.45018386840821	868.1331787109377	-223.6647644042969	127.6563262939453	587.2424926757814	-437.630340576172	192.7215728759766	428.8874816894532	-347.6191101074219	186.3081512451172	187.8781280517578	-366.8853759765626	204.4181060791016	61.94933319091798	-298.5960693359376	145.1277160644532	49.10738754272462	-259.3363037109376	311.7838134765626	47.35794830322266	-266.2028503417969	81.45735931396486	558.8264770507814	-34.78625869750977	71.58353424072267	386.7258605957032	-103.6163330078125	-110.5428924560547	242.9852600097657	-77.00147247314455	-221.1907653808594	182.2254028320313	-132.4819030761719	-252.0923919677735	216.5532989501954	-190.0162353515625	-170.3407287597657	74.97805023193361	-155.5532989501953	
15	1.09	238.6505889892579	1534.5634765625	-273.8392028808594	223.9877166748047	1507.207763671875	-152.4447784423828	85.8501434326172	1459.061401367188	-292.6403808593751	74.07085418701173	1438.2939453125	-162.1985778808594	36.69679260253907	1349.760498046875	-218.4547424316407	-33.40999221801759	1130.509765625	-221.9629058837891	182.4013671875	1247.575561523438	-238.2916259765626	238.8239746093751	1089.963500976563	-232.6420440673829	80.70506286621095	1305.50439453125	-396.5777893066407	27.41298484802247	1010.182189941406	-494.6216735839845	126.0722961425782	787.9419555664065	-504.8038635253907	71.5887908935547	777.777038574219	-539.9038085937501	143.2413330078125	701.1062011718751	-534.9685668945314	121.0447158813477	1282.303100585938	-55.59070968627931	105.1452941894532	992.4290771484377	50.12732315063478	238.1559600830079	785.6765747070315	-3.886628389358521	182.7436065673828	762.5746459960939	46.79010772705079	278.9812011718751	711.0618286132814	20.11905288696289	157.4895629882813	864.3969726562502	-359.7383728027344	146.9432220458985	848.760192871094	-85.38552856445314	-25.84153938293458	869.661071777344	-225.1418609619141	135.5271148681641	588.1425170898439	-438.7091064453126	197.7321166992188	428.8906250000001	-348.1715393066407	188.6216278076172	187.7661895751953	-366.9859619140626	204.6583557128907	61.93252563476564	-298.4354553222657	145.1925811767578	49.2095413208008	-259.2742614746094	311.8616027832032	47.34326171875001	-265.8438415527344	97.6509704589844	560.1732177734376	-35.10182571411134	94.9726028442383	387.8179016113282	-103.3738479614258	-90.14192199707033	248.6135559082032	-76.80770874023439	-202.3240051269532	190.1434173583985	-132.2251586914063	-231.7680664062501	224.6739349365235	-190.4817504882813	-153.9871520996094	80.58837127685548	-153.8142852783203	
16	1.1	249.6243591308594	1536.192626953125	-273.6135864257813	234.9045715332032	1508.689086914063	-152.2737579345703	96.84662628173831	1460.6865234375	-292.5988464355469	84.99934387207033	1439.756103515625	-162.1926879882813	47.70756149291993	1351.363891601563	-218.6157989501954	-22.66059303283692	1132.221801757813	-222.9273681640626	193.3198394775391	1249.085205078125	-238.3471069335938	249.5225524902344	1091.3388671875	-232.9147338867188	92.37324523925783	1307.46923828125	-396.7847900390626	42.41067123413087	1011.941467285156	-496.0465698242189	144.505599975586	791.202575683594	-504.5102844238282	90.66707611083986	780.1329345703127	-540.3533935546876	163.6251831054688	704.8362426757814	-534.4673461914064	131.7067108154297	1283.2333984375	-55.76728820800783	113.535026550293	993.0722656250002	49.16039657592775	240.9738769531251	782.5418090820315	-4.648142337799073	185.3022613525391	761.2159423828126	46.58098983764649	279.8937072753907	706.8201904296876	19.4229736328125	167.8680877685547	866.2788696289065	-361.1467590332032	157.5025634765625	849.952087402344	-86.74958801269533	-15.33804798126221	871.2357177734377	-226.5556335449219	143.1854858398438	589.0186157226564	-439.6333007812501	202.3849334716797	428.8633117675782	-348.6086425781251	190.7726135253907	187.6614227294922	-367.0271606445313	204.8876037597657	61.91366195678712	-298.2751770019532	145.2329406738282	49.30276107788087	-259.2022399902344	311.9160156250001	47.36217117309571	-265.5470886230469	113.5252227783203	561.8026123046876	-35.4775619506836	118.3741531372071	389.4627075195314	-103.248779296875	-68.82519531250001	253.6840057373047	-76.64111328125001	-182.1555938720703	196.981430053711	-131.9560852050782	-210.6983184814454	231.4958953857422	-190.666748046875	-135.4735717773438	85.98121643066408	-152.3055877685547	
17	1.11	260.5094604492188	1537.8291015625	-273.1877136230469	245.6299438476563	1510.130004882813	-151.9259948730469	107.7637176513672	1462.341552734375	-292.5058593750001	95.75408172607423	1441.185546875	-162.1599884033203	58.57784652709962	1352.966064453125	-218.7816772460938	-12.037184715271	1133.927368164063	-223.9774475097657	204.0923004150391	1250.58935546875	-238.3403930664063	260.0750122070313	1092.716674804688	-233.1067657470704	103.9580154418946	1309.45849609375	-396.9699096679689	57.50716781616212	1013.778015136719	-497.5009765625001	163.0786285400391	794.6186523437502	-503.9576110839845	109.9780807495117	782.628356933594	-540.6300048828126	184.241683959961	708.7792968750001	-533.6440429687501	142.0922088623047	1284.101318359375	-55.87741851806642	121.6136703491211	993.7349853515627	48.29394531250001	243.6417236328126	779.7810668945315	-5.370009422302247	187.851303100586	760.1555175781251	46.43905639648438	280.7587280273438	703.0653686523439	18.74438095092774	178.120361328125	868.031677246094	-362.4829101562501	167.9602203369141	851.2446289062502	-87.9934539794922	-4.920971870422364	872.8408813476565	-227.8663024902344	150.6996002197266	589.8975830078126	-440.4149169921876	206.7240142822266	428.8184814453126	-348.9379882812501	192.7964172363282	187.5713653564453	-367.0245666503907	205.1198883056641	61.89413833618165	-298.1134033203126	145.2591705322266	49.40177154541017	-259.1323547363282	311.9551696777344	47.38834762573243	-265.2981262207032	129.1534729003907	563.6692504882814	-35.95003509521485	141.6758422851563	391.6640625000001	-103.2402496337891	-46.68626785278321	258.0714416503907	-76.49398040771486	-160.7806243896485	202.5677337646485	-131.6714019775391	-188.9953765869141	236.9114837646485	-190.547836303711	-114.9079971313477	90.90682983398439	-151.119369506836	
18	1.12	271.3200073242188	1539.447265625	-272.5922546386719	256.1817626953126	1511.511962890625	-151.4293212890625	118.605209350586	1464.016967773438	-292.3750305175782	106.3475723266602	1442.582763671875	-162.1118316650391	69.30870056152345	1354.555786132813	-218.9658966064454	-1.52691388130188	1135.607177734375	-225.099105834961	214.7270660400391	1252.082641601563	-238.2862396240235	270.4957885742188	1094.098388671875	-233.241683959961	115.4681472778321	1311.461547851563	-397.1383361816407	72.70234680175783	1015.693725585938	-498.975067138672	181.7556915283203	798.1879882812502	-503.1547851562501	129.4925994873047	785.273376464844	-540.7356567382814	205.0338592529297	712.9253540039064	-532.4980468750001	152.2101593017578	1284.930786132813	-55.93251800537111	129.3641357421875	994.434020996094	47.50432205200196	246.2106323242188	777.4114379882815	-6.034335613250734	190.4044494628907	759.3933105468751	46.35030746459962	281.6340026855469	699.8144531250001	18.11930847167969	188.2587432861328	869.662048339844	-363.7490844726563	178.3534545898438	852.6260986328127	-89.13584899902345	5.4277081489563	874.4558715820315	-229.0416107177735	158.111801147461	590.7944335937501	-441.0653381347657	210.7833709716797	428.7669982910157	-349.1666564941407	194.7093658447266	187.5016784667969	-366.9888610839844	205.3628692626954	61.87682342529298	-297.9475708007813	145.2801055908203	49.51734924316408	-259.0731811523438	311.9842224121094	47.40582656860352	-265.0811157226563	144.6533355712891	565.7291870117189	-36.53645706176759	164.7951049804688	394.3924560546876	-103.3472747802735	-23.81985855102539	261.6756896972657	-76.36826324462892	-138.3099670410157	206.7801666259766	-131.3771514892578	-166.7446899414063	240.8514404296876	-190.1389312744141	-92.44146728515626	95.1557083129883	-150.3070373535157	
19	1.13	282.0627746582032	1541.023803710938	-271.8668212890626	266.5777282714844	1512.821899414063	-150.8190307617188	129.3702392578125	1465.69775390625	-292.2198486328126	116.7928848266602	1443.94677734375	-162.0574951171875	79.90254211425783	1356.119018554688	-219.1799621582032	8.884341239929201	1137.240600585938	-226.274887084961	225.2347564697266	1253.557006835938	-238.1960601806641	280.8012695312501	1095.4814453125	-233.339584350586	126.9143753051758	1313.46435546875	-397.2920227050782	87.98528289794923	1017.686096191406	-500.4591064453126	200.5019683837891	801.9086914062502	-502.117889404297	149.1796112060547	788.073181152344	-540.6727905273439	225.9486999511719	717.2629394531251	-531.0328979492189	162.0742492675782	1285.743896484375	-55.94258117675783	136.7721862792969	995.1823730468752	46.77224731445313	248.7310791015626	775.4390869140627	-6.622314453125002	192.9653320312501	758.9198608398439	46.29839324951173	282.5711669921876	697.0699462890626	17.58210754394532	198.2991485595704	871.1765747070315	-364.9464721679688	188.7157745361328	854.075622558594	-90.19580841064455	15.7240571975708	876.0562133789065	-230.0585021972657	165.4408569335938	591.7130126953126	-441.5943298339845	214.5893707275391	428.7171325683595	-349.3024902343751	196.5139617919922	187.4558868408203	-366.9271850585938	205.618637084961	61.86499786376955	-297.7756042480469	145.3023529052735	49.65522766113283	-259.0293884277344	312.0063476562501	47.40625000000001	-264.8811645507813	160.1601867675782	567.9481201171876	-37.23167800903321	187.6698608398438	397.589324951172	-103.5710754394532	-0.3219276666641236	264.4311523437501	-76.27410125732423	-114.8633346557617	209.5460510253907	-131.0865020751953	-144.0047149658203	243.2795715332032	-189.4869079589844	-68.25007629394533	98.57172393798831	-149.8763580322266	
